<svg xmlns="http://www.w3.org/2000/svg" viewBox="0 0 612 612"><path d="M598.54 290.35H434.86a129.44 129.44 0 00-31.18-69.5 98.7 98.7 0 00-1.06-32.76h28.77a13.46 13.46 0 100-26.92h-38.5a98.8 98.8 0 00-73.43-51.11v-31.9a13.46 13.46 0 00-26.92 0v31.9a98.8 98.8 0 00-73.43 51.11h-38.97a13.46 13.46 0 100 26.92h29.24a98.7 98.7 0 00-1.06 32.75 129.47 129.47 0 00-31.18 69.51H13.46a13.46 13.46 0 000 26.92h163.16a129.65 129.65 0 0042.18 85.12l-34 96.15h-9.33v-8.38a13.46 13.46 0 00-26.92 0v43.68a13.46 13.46 0 0026.92 0v-8.38h18.84c5.7 0 10.78-3.6 12.69-8.97l34.5-97.54a129 129 0 0064.5 17.2 129 129 0 0064.5-17.2L405 516.5a13.46 13.46 0 0012.7 8.97h18.83v8.38a13.46 13.46 0 0026.92 0v-43.68a13.46 13.46 0 00-26.92 0v8.38h-9.32l-34-96.15a129.67 129.67 0 0042.17-85.12h163.16a13.46 13.46 0 100-26.92zM306 136.03c36.09 0 66 26.8 70.94 61.55A129 129 0 00306 176.4a129 129 0 00-70.94 21.18c4.93-34.74 34.86-61.55 70.94-61.55zm87.48 183.7h-54.71a35.62 35.62 0 01-19.31 19.32v54.7a13.46 13.46 0 01-26.92 0v-54.7a35.62 35.62 0 01-19.3-19.31h-54.72a13.46 13.46 0 110-26.92h54.71a35.62 35.62 0 0119.31-19.31V218.8a13.46 13.46 0 0126.92 0v54.7a35.62 35.62 0 0119.3 19.32h54.72a13.46 13.46 0 110 26.92z"/></svg>